<?xml version="1.0" encoding="UTF-8"?>
<svg fill="#FFFFFF" width="100pt" height="100pt" version="1.1" viewBox="0 0 100 100" xmlns="http://www.w3.org/2000/svg">
 <g>
  <path d="m59.848 33.254c-1.5234-2.0781-4.4297-2.5273-6.5078-1.0039-1.7109 1.2578-2.3125 3.4766-1.6055 5.3789l-5.1016 3.7227c-1.2969-1.1133-2.9805-1.793-4.8242-1.793-0.79688 0-1.5664 0.12891-2.2891 0.36328l-1.6797-3.6641c1.5391-1.3164 2.1016-3.5469 1.2109-5.4844-1.0703-2.3359-3.8242-3.3633-6.168-2.3047-2.3359 1.0703-3.3633 3.832-2.3047 6.168 0.88672 1.9375 2.9375 2.9766 4.9453 2.6719l1.7422 3.8086c-1.6719 1.2969-2.7695 3.2891-2.8594 5.5469l-8.457 1.0195c-0.86328-1.832-2.8672-2.9609-4.9609-2.625-2.543 0.42188-4.2578 2.8086-3.8516 5.3438 0.41016 2.5352 2.8008 4.2617 5.3438 3.8516 2.1016-0.34375 3.6406-2.043 3.8711-4.0703l8.375-0.99609c0.94531 3.0078 3.7539 5.1914 7.0742 5.1914 0.67188 0 1.3203-0.097656 1.9375-0.26562l1.6797 3.2344c-1.4727 1.3906-1.918 3.6367-0.93359 5.5273 1.1875 2.2773 4 3.1758 6.2773 1.9883 2.2812-1.1953 3.1641-4.0039 1.9805-6.2812-0.98828-1.8906-3.0859-2.8203-5.0742-2.4102l-1.5742-3.0273c-0.32031 0.16406-0.64844 0.30469-0.97656 0.44141 2.4258-1.2188 4.0938-3.7227 4.0938-6.6211 0-1.332-0.35547-2.5781-0.97266-3.6602l4.9844-3.6406c1.6094 1.2539 3.9023 1.3398 5.6133 0.082032 2.0859-1.5195 2.5352-4.4258 1.0117-6.4922z"/>
  <path d="m95.898 77.641c-4.9844-3.5664-10.023-7.0625-15.031-10.582-2.3438-1.6328-4.6758-3.2891-7.0195-4.9219 3.8242-7.3438 5.3359-15.969 3.75-24.727-3.8008-21.02-24-35.039-45.031-31.234-21.023 3.8008-35.039 24.008-31.238 45.031 3.8047 21.031 24.008 35.039 45.031 31.238 6.6719-1.207 12.633-4.0586 17.547-8.0781 6.7656 6.0469 13.559 12.09 20.34 18.133 1.6719 1.5 3.668 2.1758 6.2109 1.875 1.7344-0.16797 3.3594-1.0703 4.6445-2.6055 0.83984-1.0039 1.6406-2.0391 2.4492-3.0781 2.8398-3.6367 2.1523-8.3242-1.6523-11.051zm-36.844-10.703c-0.14844 0.13281-0.30078 0.26172-0.44922 0.39844-0.03125 0.015624-0.050781 0.035156-0.078125 0.0625-3.8359 3.1719-8.5039 5.4297-13.734 6.3789-16.246 2.9336-31.855-7.8945-34.793-24.137-2.1094-11.656 2.8672-22.977 11.848-29.531 3.543-2.5859 7.6992-4.4336 12.285-5.2617 16.242-2.9375 31.855 7.8906 34.793 24.137 1.9492 10.762-2.1523 21.254-9.8711 27.953z"/>
 </g>
</svg>
