<?xml version="1.0" encoding="UTF-8"?>
<svg width="100px" height="100px" viewBox="0 0 100 100" version="1.1" xmlns="http://www.w3.org/2000/svg" xmlns:xlink="http://www.w3.org/1999/xlink">
    <!-- Generator: Sketch 48.2 (47327) - http://www.bohemiancoding.com/sketch -->
    <title>Group</title>
    <desc>Created with Sketch.</desc>
    <defs></defs>
    <g id="Page-1" stroke="none" stroke-width="1" fill="none" fill-rule="evenodd">
        <g id="Group" fill-rule="nonzero">
            <g id="farms" fill="#B2B2B2">
                <circle id="Oval" cx="50" cy="50" r="50"></circle>
            </g>
            <g id="np_find-bacteria_579742_000000" transform="translate(16.000000, 21.000000)" fill="#000000">
                <path d="M42.3592058,19.6224523 C41.2778747,18.1753045 39.2149415,17.8624906 37.7398764,18.9233562 C36.5254552,19.7992632 36.0984309,21.3443916 36.6002696,22.6691157 L32.979081,25.2615304 C32.0585229,24.4862503 30.8634796,24.0129206 29.554795,24.0129206 C28.9891582,24.0129206 28.4429419,24.102691 27.9299591,24.2659016 L26.7376841,21.7142949 C27.8301592,20.79758 28.2294298,19.2443039 27.5971982,17.8950672 C26.837484,16.2683927 24.8827264,15.5529316 23.2190637,16.2901197 C21.5610085,17.0354555 20.8317453,18.9586487 21.5831547,20.5853929 C22.2125612,21.9346296 23.6682342,22.6582383 25.0933993,22.4460512 L26.3300377,25.0982849 C25.1432992,26.0014204 24.3642071,27.3887491 24.3003948,28.9610364 L18.2974954,29.670996 C17.6847269,28.3952274 16.2623159,27.6090838 14.7761777,27.8429979 C12.97112,28.1367868 11.7539304,29.7988514 12.042257,31.5643145 C12.3333944,33.3297776 14.0303049,34.5320781 15.8353626,34.2464926 C17.3271083,34.0071119 18.4195124,32.8237878 18.5831246,31.4120162 L24.5278193,30.7183588 C25.1988138,32.8129312 27.1923911,34.3335471 29.5491875,34.3335471 C30.0260975,34.3335471 30.4863553,34.2655414 30.9244526,34.1485745 L32.1167277,36.4009467 C31.0713842,37.3693331 30.7553039,38.9334727 31.4540522,40.2500491 C32.2969566,41.8359158 34.2933093,42.4616134 35.9097694,41.6346619 C37.5289977,40.8022786 38.1556927,38.8464251 37.3155565,37.2605585 C36.6140613,35.943982 35.1251406,35.2965573 33.7138169,35.5821429 L32.5964273,33.473991 C32.3690667,33.5882392 32.1361553,33.6861711 31.903251,33.7813802 C33.6251185,32.932632 34.8090887,31.1889656 34.8090887,29.1705772 C34.8090887,28.2429987 34.5567711,27.3752393 34.1186808,26.6216863 L37.6566791,24.0864445 C38.7990542,24.9596356 40.4265874,25.0194547 41.6410796,24.1435699 C43.1216812,23.0854202 43.4406008,21.0615304 42.3591987,19.6225303 L42.3592058,19.6224523 Z" id="Shape"></path>
                <path d="M66.6234788,50.2795839 C63.1349511,47.7921072 59.6084895,45.353663 56.1034444,42.8988979 C54.4630442,41.7600598 52.8309026,40.6048311 51.1905723,39.4659931 C53.8670885,34.3438723 54.925111,28.3280063 53.8151567,22.2195156 C51.1550179,7.55857994 37.0178163,-2.21932953 22.2984468,0.43456487 C7.58467642,3.08552987 -2.22497042,17.1795574 0.435308378,31.8425855 C3.09817677,46.5111934 17.238248,56.2814306 31.9520183,53.6303261 C36.621609,52.7884732 40.7937184,50.7995519 44.2329739,47.9960491 C48.9681442,52.2136138 53.7227714,56.4285282 58.4687199,60.6433729 C59.6388647,61.6895862 61.0359135,62.1609401 62.8156617,61.9511395 C64.0295495,61.8339845 65.1668694,61.2046314 66.066297,60.133867 C66.6540919,59.4336713 67.2145352,58.7116446 67.7804656,57.9869675 C69.7680109,55.4504583 69.2868371,52.1810417 66.6240387,50.2791655 L66.6234788,50.2795839 Z M40.8367616,42.8145033 C40.7328701,42.9071351 40.6262489,42.9970466 40.5223574,43.0924055 C40.5004859,43.1033028 40.4868163,43.1169259 40.4676785,43.1359977 C37.7829736,45.3483203 34.5158909,46.9230806 30.8554005,47.5851244 C19.4850007,49.6312386 8.56043043,42.0789038 6.504156,30.7501575 C5.02780975,22.6203827 8.51087827,14.7242622 14.7964431,10.1530076 C17.2761505,8.3494056 20.1850299,7.06068006 23.3945817,6.48310057 C34.7621819,4.4342662 45.6895518,11.986601 47.7458262,23.3180675 C49.1100502,30.8242991 46.2394547,38.1422124 40.83715,42.814601 L40.8367616,42.8145033 Z" id="Shape"></path>
            </g>
        </g>
    </g>
</svg>