<?xml version="1.0" standalone="no"?>
<!DOCTYPE svg PUBLIC "-//W3C//DTD SVG 20010904//EN"
 "http://www.w3.org/TR/2001/REC-SVG-20010904/DTD/svg10.dtd">
<svg version="1.0" xmlns="http://www.w3.org/2000/svg"
 width="210.000000pt" height="130.000000pt" viewBox="0 0 210.000000 130.000000"
 preserveAspectRatio="xMidYMid meet">
<metadata>
Created by potrace 1.15, written by Peter Selinger 2001-2017
</metadata>
<g transform="translate(0.000000,130.000000) scale(0.100000,-0.100000)"
fill="#000000" stroke="none">
<path d="M1591 1221 c-12 -16 -21 -37 -21 -46 0 -29 -107 -165 -130 -165 -16
0 -22 21 -10 35 6 7 10 29 8 47 -3 30 -6 33 -38 33 l-35 0 -1 -50 c-1 -68 -1
-67 -24 -55 -28 15 -120 149 -120 175 0 21 -17 45 -32 45 -4 0 -7 -6 -6 -12 2
-7 -5 -12 -14 -12 -23 2 -23 -1 6 -39 13 -18 34 -52 46 -76 12 -24 39 -69 60
-100 46 -68 51 -105 34 -239 -7 -57 -14 -141 -16 -188 -1 -55 -7 -89 -15 -96
-17 -14 -17 -38 1 -38 8 0 28 14 46 30 18 17 30 30 27 30 -4 0 0 19 8 41 8 23
16 67 16 98 1 46 3 51 9 26 4 -16 8 -57 9 -90 2 -57 34 -140 54 -136 4 0 12 1
18 1 7 0 8 7 4 17 -11 28 -6 459 6 490 6 15 25 46 43 68 18 22 46 65 61 95 15
30 36 67 46 81 17 25 18 27 1 25 -11 -1 -16 5 -14 17 4 25 -4 21 -27 -12z"/>
<path d="M507 1163 c-3 -4 -11 -86 -18 -181 -10 -139 -16 -175 -28 -182 -27
-14 -221 -52 -236 -46 -12 4 -15 38 -17 183 l-3 178 -34 0 c-45 0 -49 -15 -50
-194 0 -76 -4 -147 -8 -157 -3 -9 -20 -30 -37 -45 -34 -30 -29 -47 23 -68 23
-10 30 -23 45 -81 23 -89 35 -105 70 -96 37 9 42 30 22 85 -9 25 -16 60 -16
77 l0 30 93 17 c50 10 108 18 127 20 l35 2 13 -90 c15 -111 17 -115 41 -115
41 0 53 40 46 149 l-7 100 38 6 c64 10 84 22 84 49 0 34 -34 56 -76 49 l-34
-6 0 107 c0 60 4 106 10 106 5 0 32 -5 60 -11 40 -8 53 -16 60 -35 11 -29 40
-314 40 -394 0 -54 -1 -56 -32 -65 -26 -8 -34 -16 -36 -37 -11 -97 264 -20
398 111 66 65 88 103 97 166 17 124 -104 241 -301 291 -55 14 -69 22 -82 45
-17 34 -27 35 -79 9 -23 -12 -59 -20 -86 -20 -42 0 -48 3 -51 23 -2 17 -11 23
-35 25 -17 2 -33 -1 -36 -5z m404 -182 c114 -48 169 -103 169 -168 0 -40 -51
-124 -102 -168 -51 -44 -126 -81 -139 -68 -12 12 -26 136 -34 301 l-7 132 23
0 c13 0 54 -13 90 -29z"/>
<path d="M1860 1089 c-25 -5 -59 -7 -76 -4 -45 8 -77 -22 -124 -118 -92 -190
-111 -338 -53 -420 39 -55 84 -77 158 -77 180 0 295 165 283 404 -9 178 -65
241 -188 215z m69 -88 c66 -66 46 -295 -32 -379 -35 -38 -72 -52 -132 -52 -50
0 -60 4 -87 30 -28 29 -30 35 -26 88 9 124 150 332 226 332 18 0 40 -8 51 -19z"/>
</g>
</svg>
