<?xml version="1.0" encoding="UTF-8"?>
<svg fill="#FFFFFF" width="100pt" height="100pt" version="1.1" viewBox="0 0 100 100" xmlns="http://www.w3.org/2000/svg">
 <g>
  <path d="m30.391 62.898-0.027344-0.10547c-0.003906-0.019531-0.011719-0.035157-0.015625-0.054688l-3.9297-15.992-0.27344-1.0117c-0.26953-0.81641-0.86328-1.1875-1.9375-1.4102-0.011719 0-2.9766-0.57031-4.8516-0.57031h-1.6641-1.6641c-1.875 0-4.8398 0.57031-4.8516 0.57031-1.0703 0.22266-1.668 0.59375-1.9375 1.4102l-0.27344 1.0117-3.9258 15.988c-0.003906 0.019531-0.011718 0.035156-0.015624 0.054687l-0.023438 0.10938h0.015625c-0.003906 0.054687-0.015625 0.10156-0.015625 0.15234 0 0.75391 0.61328 1.3633 1.3672 1.3633 0.56641 0 1.0508-0.33984 1.2578-0.83203h0.003906l3.9727-11.77 0.125-0.15625 0.17969-0.089844 0.20703 0.015625 0.11328 0.046875 0.11719 0.035156 0.10938 0.10156 0.035156 0.10938-0.015625 0.15625-0.023437 0.17578-0.039063 0.19141-0.054687 0.30469-6.4844 20.262h8.3281l1.3398 17.781s0.066407 0.51562 0.40625 0.79688c0.46094 0.38281 0.82031 0.32422 0.82031 0.32422l0.92578-0.003907 0.92578 0.003907s0.35937 0.058593 0.82031-0.32422c0.34375-0.28125 0.40625-0.79688 0.40625-0.79688l1.3398-17.781h8.3281l-6.4844-20.25-0.054688-0.30469-0.039062-0.19141-0.023438-0.17578-0.015625-0.15625 0.035157-0.10938 0.10937-0.10156 0.11719-0.035156 0.11328-0.046875 0.20703-0.015625 0.17969 0.089844 0.125 0.15625 3.9727 11.77h0.003906c0.20703 0.49219 0.69141 0.83203 1.2578 0.83203 0.75391 0 1.3672-0.61328 1.3672-1.3633 0-0.050781-0.011718-0.097656-0.015624-0.14844z"/>
  <path d="m23.312 36.938c0 3.1016-2.5156 5.6172-5.6172 5.6172-3.1016 0-5.6172-2.5156-5.6172-5.6172s2.5156-5.6172 5.6172-5.6172c3.1016 0 5.6172 2.5156 5.6172 5.6172"/>
  <path d="m86.84 35.953c0 3.1875-2.5859 5.7695-5.7695 5.7695-3.1875 0-5.7695-2.582-5.7695-5.7695 0-3.1836 2.582-5.7656 5.7695-5.7656 3.1836 0 5.7695 2.582 5.7695 5.7656"/>
  <path d="m94.945 65.422-0.29687-1.3828c0-0.011718 0-0.019531-0.003907-0.035156l-3.6094-16.977c-0.078125-0.36719-0.26172-0.88672-0.26953-0.89844-0.60156-1.8555-4.8242-3.3984-9.6992-3.3984s-9.0977 1.543-9.6992 3.3984c-0.007813 0.011719-0.1875 0.52734-0.26953 0.89844l-3.6094 16.977c-0.003906 0.011719-0.003906 0.023438-0.003906 0.035156l-0.29688 1.3828c-0.28125 1.3359 0.56641 2.6445 1.9023 2.9297 1.332 0.28516 2.6445-0.56641 2.9258-1.9023l2.0703-9.7422 0.003906 11.062v21.121c0 1.6445 1.3359 2.9766 2.9805 2.9766 1.6406 0 2.9766-1.3359 2.9766-2.9766v-21.035h2.0469v21.035c0 1.6445 1.3359 2.9766 2.9766 2.9766 1.6445 0 2.9805-1.3359 2.9805-2.9766v-3.7656l-0.003906-13.59v-14.832l2.0703 9.7422c0.28516 1.3359 1.5938 2.1875 2.9258 1.9023 1.3359-0.28516 2.1875-1.5938 1.9023-2.9258z"/>
  <path d="m57.09 16.141c0 4.4219-3.5898 8.0117-8.0117 8.0117-4.4258 0-8.0117-3.5898-8.0117-8.0117 0-4.4258 3.5859-8.0117 8.0117-8.0117 4.4219 0 8.0117 3.5859 8.0117 8.0117"/>
  <path d="m67.688 56.395-0.39453-1.8555c-0.003907-0.015624 0-0.03125-0.003907-0.046874l-4.7734-22.453c-0.57812-3.7188-6.3672-6.6445-13.438-6.6445-7.0625 0-12.848 2.9141-13.438 6.6289l-4.7773 22.469c-0.003906 0.015624-0.003906 0.03125-0.003906 0.046874l-0.39844 1.8555c-0.37891 1.7891 0.76172 3.5469 2.5508 3.9258 1.7852 0.38281 3.5469-0.76172 3.9258-2.5508l2.7773-13.066v43.176c0 2.2031 1.793 3.9922 3.9922 3.9922 2.2031 0 3.9922-1.7891 3.9922-3.9922v-5.0508l0.007812-21.23v-1.9414h2.7422v28.223c0 2.2031 1.793 3.9922 3.9922 3.9922 2.2031 0 3.9922-1.7891 3.9922-3.9922v-43.18l2.7773 13.066c0.38281 1.7891 2.1406 2.9336 3.9258 2.5508 1.793-0.37891 2.9336-2.1367 2.5508-3.9219z"/>
 </g>
</svg>
